static1_forces_filt12Hz.mot
version=1
nRows=38
nColumns=19
inDegrees=yes
endheader
time	R_ground_force_vx	R_ground_force_vy	R_ground_force_vz	R_ground_force_px	R_ground_force_py	R_ground_force_pz	R_ground_torque_x	R_ground_torque_y	R_ground_torque_z	L_ground_force_vx	L_ground_force_vy	L_ground_force_vz	L_ground_force_px	L_ground_force_py	L_ground_force_pz	L_ground_torque_x	L_ground_torque_y	L_ground_torque_z	
2.269500	 -4.425729	 12.775943	374.353298	  0.778345	  0.278942	  0.011500	  0.000000	  0.000000	 -1.260537	  2.209611	-11.781312	408.485661	  0.761668	  0.718799	  0.011500	  0.000000	  0.000000	 -0.965737
2.270000	 -4.423553	 12.777425	374.377610	  0.778345	  0.278942	  0.011500	  0.000000	  0.000000	 -1.260621	  2.216145	-11.780765	408.488214	  0.761672	  0.718798	  0.011500	  0.000000	  0.000000	 -0.964872
2.270500	 -4.421380	 12.778986	374.402149	  0.778346	  0.278942	  0.011500	  0.000000	  0.000000	 -1.260712	  2.222591	-11.780227	408.490760	  0.761677	  0.718798	  0.011500	  0.000000	  0.000000	 -0.964013
2.271000	 -4.419214	 12.780625	374.426918	  0.778346	  0.278942	  0.011500	  0.000000	  0.000000	 -1.260810	  2.228942	-11.779692	408.493301	  0.761682	  0.718797	  0.011500	  0.000000	  0.000000	 -0.963164
2.271500	 -4.417060	 12.782341	374.451918	  0.778347	  0.278942	  0.011500	  0.000000	  0.000000	 -1.260912	  2.235188	-11.779154	408.495840	  0.761686	  0.718796	  0.011500	  0.000000	  0.000000	 -0.962329
2.272000	 -4.414920	 12.784133	374.477151	  0.778348	  0.278942	  0.011500	  0.000000	  0.000000	 -1.261017	  2.241323	-11.778606	408.498380	  0.761691	  0.718796	  0.011500	  0.000000	  0.000000	 -0.961510
2.272500	 -4.412797	 12.786000	374.502623	  0.778349	  0.278942	  0.011500	  0.000000	  0.000000	 -1.261122	  2.247337	-11.778043	408.500926	  0.761696	  0.718795	  0.011500	  0.000000	  0.000000	 -0.960709
2.273000	 -4.410695	 12.787943	374.528335	  0.778350	  0.278942	  0.011500	  0.000000	  0.000000	 -1.261226	  2.253224	-11.777458	408.503481	  0.761701	  0.718794	  0.011500	  0.000000	  0.000000	 -0.959930
2.273500	 -4.408614	 12.789961	374.554290	  0.778351	  0.278942	  0.011500	  0.000000	  0.000000	 -1.261327	  2.258976	-11.776845	408.506051	  0.761706	  0.718794	  0.011500	  0.000000	  0.000000	 -0.959176
2.274000	 -4.406557	 12.792053	374.580490	  0.778352	  0.278942	  0.011500	  0.000000	  0.000000	 -1.261424	  2.264585	-11.776196	408.508639	  0.761711	  0.718793	  0.011500	  0.000000	  0.000000	 -0.958447
2.274500	 -4.404523	 12.794219	374.606938	  0.778354	  0.278943	  0.011500	  0.000000	  0.000000	 -1.261514	  2.270045	-11.775505	408.511249	  0.761716	  0.718792	  0.011500	  0.000000	  0.000000	 -0.957745
2.275000	 -4.402515	 12.796457	374.633634	  0.778355	  0.278943	  0.011500	  0.000000	  0.000000	 -1.261598	  2.275346	-11.774765	408.513884	  0.761721	  0.718792	  0.011500	  0.000000	  0.000000	 -0.957071
2.275500	 -4.400530	 12.798767	374.660580	  0.778357	  0.278943	  0.011500	  0.000000	  0.000000	 -1.261675	  2.280484	-11.773971	408.516546	  0.761726	  0.718791	  0.011500	  0.000000	  0.000000	 -0.956426
2.276000	 -4.398570	 12.801147	374.687778	  0.778359	  0.278943	  0.011500	  0.000000	  0.000000	 -1.261744	  2.285449	-11.773115	408.519236	  0.761731	  0.718790	  0.011500	  0.000000	  0.000000	 -0.955809
2.276500	 -4.396632	 12.803595	374.715231	  0.778361	  0.278944	  0.011500	  0.000000	  0.000000	 -1.261806	  2.290234	-11.772192	408.521955	  0.761737	  0.718790	  0.011500	  0.000000	  0.000000	 -0.955219
2.277000	 -4.394714	 12.806109	374.742940	  0.778363	  0.278944	  0.011500	  0.000000	  0.000000	 -1.261862	  2.294833	-11.771198	408.524702	  0.761742	  0.718789	  0.011500	  0.000000	  0.000000	 -0.954655
2.277500	 -4.392813	 12.808687	374.770906	  0.778365	  0.278944	  0.011500	  0.000000	  0.000000	 -1.261913	  2.299239	-11.770129	408.527478	  0.761747	  0.718789	  0.011500	  0.000000	  0.000000	 -0.954116
2.278000	 -4.390926	 12.811326	374.799131	  0.778368	  0.278944	  0.011500	  0.000000	  0.000000	 -1.261960	  2.303446	-11.768981	408.530281	  0.761753	  0.718788	  0.011500	  0.000000	  0.000000	 -0.953599
2.278500	 -4.389050	 12.814023	374.827614	  0.778370	  0.278945	  0.011500	  0.000000	  0.000000	 -1.262004	  2.307448	-11.767753	408.533111	  0.761758	  0.718788	  0.011500	  0.000000	  0.000000	 -0.953103
2.279000	 -4.387180	 12.816774	374.856353	  0.778373	  0.278945	  0.011500	  0.000000	  0.000000	 -1.262046	  2.311240	-11.766442	408.535965	  0.761763	  0.718787	  0.011500	  0.000000	  0.000000	 -0.952627
2.279500	 -4.385313	 12.819575	374.885345	  0.778375	  0.278945	  0.011500	  0.000000	  0.000000	 -1.262087	  2.314820	-11.765047	408.538843	  0.761769	  0.718787	  0.011500	  0.000000	  0.000000	 -0.952169
2.280000	 -4.383447	 12.822422	374.914584	  0.778378	  0.278945	  0.011500	  0.000000	  0.000000	 -1.262128	  2.318182	-11.763568	408.541743	  0.761774	  0.718786	  0.011500	  0.000000	  0.000000	 -0.951728
2.280500	 -4.381577	 12.825311	374.944063	  0.778381	  0.278946	  0.011500	  0.000000	  0.000000	 -1.262170	  2.321326	-11.762005	408.544661	  0.761780	  0.718786	  0.011500	  0.000000	  0.000000	 -0.951301
2.281000	 -4.379702	 12.828235	374.973776	  0.778384	  0.278946	  0.011500	  0.000000	  0.000000	 -1.262214	  2.324248	-11.760359	408.547594	  0.761785	  0.718786	  0.011500	  0.000000	  0.000000	 -0.950889
2.281500	 -4.377819	 12.831191	375.003712	  0.778386	  0.278946	  0.011500	  0.000000	  0.000000	 -1.262262	  2.326948	-11.758632	408.550538	  0.761790	  0.718786	  0.011500	  0.000000	  0.000000	 -0.950490
2.282000	 -4.375926	 12.834172	375.033863	  0.778389	  0.278947	  0.011500	  0.000000	  0.000000	 -1.262314	  2.329424	-11.756828	408.553489	  0.761796	  0.718785	  0.011500	  0.000000	  0.000000	 -0.950105
2.282500	 -4.374023	 12.837174	375.064218	  0.778392	  0.278947	  0.011500	  0.000000	  0.000000	 -1.262371	  2.331677	-11.754948	408.556443	  0.761801	  0.718785	  0.011500	  0.000000	  0.000000	 -0.949734
2.283000	 -4.372109	 12.840193	375.094768	  0.778395	  0.278947	  0.011500	  0.000000	  0.000000	 -1.262435	  2.333707	-11.752997	408.559397	  0.761807	  0.718785	  0.011500	  0.000000	  0.000000	 -0.949378
2.283500	 -4.370183	 12.843224	375.125502	  0.778398	  0.278948	  0.011500	  0.000000	  0.000000	 -1.262506	  2.335515	-11.750978	408.562346	  0.761812	  0.718785	  0.011500	  0.000000	  0.000000	 -0.949039
2.284000	 -4.368245	 12.846263	375.156411	  0.778400	  0.278948	  0.011500	  0.000000	  0.000000	 -1.262584	  2.337103	-11.748894	408.565290	  0.761817	  0.718785	  0.011500	  0.000000	  0.000000	 -0.948719
2.284500	 -4.366295	 12.849305	375.187482	  0.778403	  0.278948	  0.011500	  0.000000	  0.000000	 -1.262669	  2.338472	-11.746748	408.568228	  0.761823	  0.718786	  0.011500	  0.000000	  0.000000	 -0.948422
2.285000	 -4.364335	 12.852347	375.218704	  0.778406	  0.278949	  0.011500	  0.000000	  0.000000	 -1.262762	  2.339623	-11.744545	408.571159	  0.761828	  0.718786	  0.011500	  0.000000	  0.000000	 -0.948150
2.285500	 -4.362364	 12.855386	375.250066	  0.778409	  0.278949	  0.011500	  0.000000	  0.000000	 -1.262862	  2.340557	-11.742286	408.574083	  0.761833	  0.718786	  0.011500	  0.000000	  0.000000	 -0.947908
2.286000	 -4.360386	 12.858417	375.281554	  0.778412	  0.278949	  0.011500	  0.000000	  0.000000	 -1.262968	  2.341276	-11.739975	408.576999	  0.761839	  0.718786	  0.011500	  0.000000	  0.000000	 -0.947699
2.286500	 -4.358401	 12.861438	375.313153	  0.778415	  0.278950	  0.011500	  0.000000	  0.000000	 -1.263081	  2.341781	-11.737613	408.579906	  0.761844	  0.718787	  0.011500	  0.000000	  0.000000	 -0.947526
2.287000	 -4.356414	 12.864446	375.344849	  0.778417	  0.278950	  0.011500	  0.000000	  0.000000	 -1.263201	  2.342075	-11.735202	408.582801	  0.761849	  0.718787	  0.011500	  0.000000	  0.000000	 -0.947394
2.287500	 -4.354429	 12.867439	375.376627	  0.778420	  0.278950	  0.011500	  0.000000	  0.000000	 -1.263328	  2.342159	-11.732745	408.585682	  0.761855	  0.718788	  0.011500	  0.000000	  0.000000	 -0.947303
2.288000	 -4.352447	 12.870412	375.408469	  0.778423	  0.278951	  0.011500	  0.000000	  0.000000	 -1.263461	  2.342035	-11.730241	408.588544	  0.761860	  0.718788	  0.011500	  0.000000	  0.000000	 -0.947257
